<svg xmlns="http://www.w3.org/2000/svg" xmlns:xlink="http://www.w3.org/1999/xlink" width="192" zoomAndPan="magnify" viewBox="0 0 144 80.999996" height="108" preserveAspectRatio="xMidYMid meet" version="1.0"><defs><clipPath id="5326d8ce46"><path d="M 37.625 62.488281 L 56.097656 62.488281 L 56.097656 80.976562 L 37.625 80.976562 Z M 37.625 62.488281 " clip-rule="nonzero"/></clipPath><clipPath id="381e9ad035"><path d="M 62.882812 62.488281 L 81.480469 62.488281 L 81.480469 80.976562 L 62.882812 80.976562 Z M 62.882812 62.488281 " clip-rule="nonzero"/></clipPath><clipPath id="7d47afbc97"><path d="M 88.140625 62.488281 L 106.625 62.488281 L 106.625 80.976562 L 88.140625 80.976562 Z M 88.140625 62.488281 " clip-rule="nonzero"/></clipPath></defs><path fill="#23232b" d="M 76.152344 16.828125 C 75.84375 16.828125 75.59375 16.578125 75.59375 16.269531 C 75.59375 14.71875 74.488281 13.460938 73.128906 13.460938 C 72.820312 13.460938 72.574219 13.210938 72.574219 12.902344 C 72.574219 12.597656 72.820312 12.347656 73.128906 12.347656 C 75.101562 12.347656 76.707031 14.105469 76.707031 16.269531 C 76.707031 16.578125 76.457031 16.828125 76.152344 16.828125 " fill-opacity="1" fill-rule="nonzero"/><path fill="#23232b" d="M 78.550781 16.828125 C 78.242188 16.828125 77.992188 16.578125 77.992188 16.269531 C 77.992188 13.246094 75.8125 10.785156 73.128906 10.785156 C 72.820312 10.785156 72.574219 10.535156 72.574219 10.230469 C 72.574219 9.921875 72.820312 9.675781 73.128906 9.675781 C 76.425781 9.675781 79.105469 12.632812 79.105469 16.269531 C 79.105469 16.578125 78.855469 16.828125 78.550781 16.828125 " fill-opacity="1" fill-rule="nonzero"/><path fill="#23232b" d="M 68.253906 14.191406 L 68.261719 14.191406 Z M 66.089844 8.273438 C 66.082031 8.273438 66.070312 8.273438 66.0625 8.273438 C 65.867188 8.285156 65.691406 8.394531 65.558594 8.582031 C 63.984375 10.800781 62.222656 15.5 68.078125 22.027344 C 73.847656 28.460938 77.972656 26.546875 79.917969 24.835938 C 80.097656 24.679688 80.207031 24.441406 80.222656 24.179688 C 80.238281 23.929688 80.160156 23.695312 80.015625 23.535156 L 77.863281 21.132812 C 77.707031 20.957031 77.492188 20.894531 77.289062 20.96875 C 76.867188 21.117188 76.222656 21.453125 75.550781 22.199219 C 74.996094 22.816406 74.355469 23.132812 73.640625 23.132812 C 72.132812 23.132812 70.738281 21.714844 69.4375 20.265625 C 68.011719 18.675781 65.625 16.011719 67.699219 13.695312 C 68.382812 12.9375 68.6875 12.195312 68.828125 11.707031 C 68.914062 11.410156 68.84375 11.078125 68.65625 10.867188 L 66.503906 8.46875 C 66.363281 8.3125 66.207031 8.273438 66.089844 8.273438 Z M 75.75 27.980469 C 73.371094 27.980469 70.382812 26.820312 66.96875 23.015625 C 64.710938 20.496094 59.929688 13.960938 64.34375 7.726562 C 64.734375 7.171875 65.332031 6.832031 65.976562 6.796875 C 66.601562 6.761719 67.191406 7.011719 67.613281 7.480469 L 69.765625 9.878906 C 70.292969 10.46875 70.484375 11.324219 70.257812 12.113281 C 70.078125 12.75 69.679688 13.714844 68.808594 14.683594 C 67.929688 15.664062 68.382812 16.867188 70.546875 19.277344 C 71.238281 20.046875 72.675781 21.648438 73.640625 21.648438 C 73.816406 21.648438 74.089844 21.605469 74.441406 21.210938 C 75.320312 20.234375 76.203125 19.777344 76.792969 19.570312 C 77.558594 19.300781 78.417969 19.523438 78.972656 20.144531 L 81.125 22.546875 C 81.53125 23 81.746094 23.625 81.707031 24.265625 C 81.667969 24.917969 81.375 25.53125 80.902344 25.945312 C 79.945312 26.785156 78.164062 27.980469 75.75 27.980469 " fill-opacity="1" fill-rule="nonzero"/><g clip-path="url(#5326d8ce46)"><path fill="#23232b" d="M 46.855469 64.050781 C 42.578125 64.050781 39.101562 67.519531 39.101562 71.78125 C 39.101562 76.042969 42.578125 79.507812 46.855469 79.507812 C 51.132812 79.507812 54.613281 76.042969 54.613281 71.78125 C 54.613281 67.519531 51.132812 64.050781 46.855469 64.050781 Z M 46.855469 80.976562 C 41.765625 80.976562 37.625 76.851562 37.625 71.78125 C 37.625 66.710938 41.765625 62.582031 46.855469 62.582031 C 51.945312 62.582031 56.085938 66.710938 56.085938 71.78125 C 56.085938 76.851562 51.945312 80.976562 46.855469 80.976562 " fill-opacity="1" fill-rule="nonzero"/></g><path fill="#23232b" d="M 47.609375 68.933594 L 47.609375 74.628906 L 46.132812 74.628906 L 46.132812 70.566406 L 46.074219 70.566406 C 46 70.664062 45.859375 70.757812 45.652344 70.851562 C 45.445312 70.941406 45.175781 70.988281 44.839844 70.988281 L 44.839844 69.902344 C 45.085938 69.902344 45.304688 69.851562 45.5 69.753906 C 45.695312 69.652344 45.851562 69.527344 45.964844 69.375 C 46.078125 69.226562 46.136719 69.078125 46.136719 68.933594 L 47.609375 68.933594 " fill-opacity="1" fill-rule="nonzero"/><g clip-path="url(#381e9ad035)"><path fill="#23232b" d="M 72.125 64.050781 C 67.847656 64.050781 64.367188 67.519531 64.367188 71.78125 C 64.367188 76.042969 67.847656 79.507812 72.125 79.507812 C 76.402344 79.507812 79.882812 76.042969 79.882812 71.78125 C 79.882812 67.519531 76.402344 64.050781 72.125 64.050781 Z M 72.125 80.976562 C 67.035156 80.976562 62.894531 76.851562 62.894531 71.78125 C 62.894531 66.710938 67.035156 62.582031 72.125 62.582031 C 77.214844 62.582031 81.355469 66.710938 81.355469 71.78125 C 81.355469 76.851562 77.214844 80.976562 72.125 80.976562 " fill-opacity="1" fill-rule="nonzero"/></g><path fill="#23232b" d="M 69.902344 74.667969 L 69.902344 73.675781 L 72.136719 71.859375 C 72.386719 71.648438 72.582031 71.460938 72.71875 71.292969 C 72.859375 71.125 72.925781 70.9375 72.925781 70.722656 C 72.925781 70.488281 72.84375 70.300781 72.683594 70.167969 C 72.519531 70.035156 72.316406 69.964844 72.066406 69.964844 C 71.8125 69.964844 71.605469 70.039062 71.449219 70.179688 C 71.292969 70.320312 71.214844 70.519531 71.214844 70.777344 L 69.8125 70.777344 C 69.8125 70.390625 69.90625 70.054688 70.09375 69.773438 C 70.28125 69.492188 70.546875 69.273438 70.886719 69.121094 C 71.226562 68.96875 71.621094 68.894531 72.070312 68.894531 C 72.535156 68.894531 72.941406 68.964844 73.28125 69.109375 C 73.625 69.253906 73.890625 69.457031 74.078125 69.714844 C 74.269531 69.972656 74.363281 70.273438 74.363281 70.613281 C 74.363281 70.832031 74.316406 71.046875 74.21875 71.257812 C 74.125 71.472656 73.957031 71.707031 73.714844 71.964844 C 73.472656 72.222656 73.128906 72.535156 72.6875 72.894531 L 71.953125 73.523438 L 71.953125 73.558594 L 74.4375 73.558594 L 74.4375 74.667969 L 69.902344 74.667969 " fill-opacity="1" fill-rule="nonzero"/><g clip-path="url(#7d47afbc97)"><path fill="#23232b" d="M 97.394531 64.050781 C 93.117188 64.050781 89.636719 67.519531 89.636719 71.78125 C 89.636719 76.042969 93.117188 79.507812 97.394531 79.507812 C 101.671875 79.507812 105.152344 76.042969 105.152344 71.78125 C 105.152344 67.519531 101.671875 64.050781 97.394531 64.050781 Z M 97.394531 80.976562 C 92.304688 80.976562 88.164062 76.851562 88.164062 71.78125 C 88.164062 66.710938 92.304688 62.582031 97.394531 62.582031 C 102.484375 62.582031 106.625 66.710938 106.625 71.78125 C 106.625 76.851562 102.484375 80.976562 97.394531 80.976562 " fill-opacity="1" fill-rule="nonzero"/></g><path fill="#23232b" d="M 97.371094 74.707031 C 96.90625 74.707031 96.492188 74.632812 96.128906 74.484375 C 95.769531 74.332031 95.484375 74.125 95.277344 73.863281 C 95.074219 73.601562 94.96875 73.296875 94.964844 72.953125 L 96.453125 72.953125 C 96.460938 73.140625 96.550781 73.292969 96.726562 73.410156 C 96.898438 73.53125 97.117188 73.585938 97.378906 73.585938 C 97.640625 73.585938 97.855469 73.523438 98.023438 73.398438 C 98.191406 73.269531 98.273438 73.105469 98.269531 72.902344 C 98.273438 72.703125 98.179688 72.539062 97.996094 72.410156 C 97.808594 72.285156 97.5625 72.21875 97.25 72.21875 L 96.65625 72.21875 L 96.65625 71.238281 L 97.25 71.238281 C 97.523438 71.238281 97.746094 71.179688 97.917969 71.054688 C 98.085938 70.929688 98.171875 70.769531 98.171875 70.574219 C 98.171875 70.382812 98.101562 70.226562 97.953125 70.105469 C 97.808594 69.988281 97.617188 69.929688 97.382812 69.929688 C 97.136719 69.929688 96.929688 69.988281 96.761719 70.105469 C 96.59375 70.226562 96.507812 70.382812 96.5 70.578125 L 95.085938 70.578125 C 95.089844 70.242188 95.191406 69.941406 95.390625 69.683594 C 95.589844 69.421875 95.859375 69.21875 96.203125 69.074219 C 96.550781 68.925781 96.941406 68.855469 97.382812 68.855469 C 97.820312 68.855469 98.207031 68.925781 98.539062 69.066406 C 98.871094 69.210938 99.132812 69.40625 99.320312 69.652344 C 99.507812 69.898438 99.597656 70.175781 99.597656 70.484375 C 99.597656 70.800781 99.488281 71.066406 99.261719 71.273438 C 99.035156 71.484375 98.742188 71.613281 98.386719 71.660156 L 98.386719 71.703125 C 98.859375 71.757812 99.21875 71.898438 99.460938 72.132812 C 99.707031 72.367188 99.824219 72.660156 99.824219 73.007812 C 99.824219 73.339844 99.722656 73.632812 99.511719 73.886719 C 99.300781 74.144531 99.011719 74.34375 98.640625 74.488281 C 98.273438 74.632812 97.851562 74.707031 97.371094 74.707031 " fill-opacity="1" fill-rule="nonzero"/><path fill="#23232b" d="M 72.125 1.488281 C 63.320312 1.488281 56.160156 8.621094 56.160156 17.390625 C 56.160156 26.160156 63.320312 33.296875 72.125 33.296875 C 80.929688 33.296875 88.089844 26.160156 88.089844 17.390625 C 88.089844 8.621094 80.929688 1.488281 72.125 1.488281 Z M 72.125 34.765625 C 62.511719 34.765625 54.6875 26.972656 54.6875 17.390625 C 54.6875 7.8125 62.511719 0.0195312 72.125 0.0195312 C 81.738281 0.0195312 89.5625 7.8125 89.5625 17.390625 C 89.5625 26.972656 81.738281 34.765625 72.125 34.765625 " fill-opacity="1" fill-rule="nonzero"/><path fill="#23232b" d="M 97.394531 58.679688 C 96.984375 58.679688 96.65625 58.351562 96.65625 57.945312 L 96.65625 54.902344 L 47.59375 54.902344 L 47.59375 57.945312 C 47.59375 58.351562 47.261719 58.679688 46.855469 58.679688 C 46.449219 58.679688 46.121094 58.351562 46.121094 57.945312 L 46.121094 54.167969 C 46.121094 53.765625 46.449219 53.433594 46.855469 53.433594 L 97.394531 53.433594 C 97.800781 53.433594 98.128906 53.765625 98.128906 54.167969 L 98.128906 57.945312 C 98.128906 58.351562 97.800781 58.679688 97.394531 58.679688 " fill-opacity="1" fill-rule="nonzero"/><path fill="#23232b" d="M 62.335938 50.769531 L 61.066406 50.769531 C 60.761719 50.769531 60.511719 50.523438 60.511719 50.21875 L 60.511719 41.757812 C 60.511719 41.453125 60.761719 41.207031 61.066406 41.207031 L 62.335938 41.207031 C 62.640625 41.207031 62.886719 41.453125 62.886719 41.757812 C 62.886719 42.0625 62.640625 42.308594 62.335938 42.308594 L 61.617188 42.308594 L 61.617188 49.667969 L 62.335938 49.667969 C 62.640625 49.667969 62.886719 49.914062 62.886719 50.21875 C 62.886719 50.523438 62.640625 50.769531 62.335938 50.769531 " fill-opacity="1" fill-rule="nonzero"/><path fill="#23232b" d="M 83.183594 50.769531 L 81.914062 50.769531 C 81.609375 50.769531 81.363281 50.523438 81.363281 50.21875 C 81.363281 49.914062 81.609375 49.667969 81.914062 49.667969 L 82.632812 49.667969 L 82.632812 42.308594 L 81.914062 42.308594 C 81.609375 42.308594 81.363281 42.0625 81.363281 41.757812 C 81.363281 41.453125 81.609375 41.207031 81.914062 41.207031 L 83.183594 41.207031 C 83.488281 41.207031 83.738281 41.453125 83.738281 41.757812 L 83.738281 50.21875 C 83.738281 50.523438 83.488281 50.769531 83.183594 50.769531 " fill-opacity="1" fill-rule="nonzero"/><path fill="#23232b" d="M 72.125 58.679688 C 71.71875 58.679688 71.386719 58.351562 71.386719 57.945312 L 71.386719 54.167969 C 71.386719 53.765625 71.71875 53.433594 72.125 53.433594 C 72.53125 53.433594 72.863281 53.765625 72.863281 54.167969 L 72.863281 57.945312 C 72.863281 58.351562 72.53125 58.679688 72.125 58.679688 " fill-opacity="1" fill-rule="nonzero"/><path fill="#23232b" d="M 72.125 38.539062 C 71.71875 38.539062 71.386719 38.210938 71.386719 37.804688 L 71.386719 34.03125 C 71.386719 33.625 71.71875 33.296875 72.125 33.296875 C 72.53125 33.296875 72.863281 33.625 72.863281 34.03125 L 72.863281 37.804688 C 72.863281 38.210938 72.53125 38.539062 72.125 38.539062 " fill-opacity="1" fill-rule="nonzero"/><path fill="#f80000" d="M 66.574219 43.039062 L 66.574219 48.9375 L 65.042969 48.9375 L 65.042969 43.039062 L 66.574219 43.039062 " fill-opacity="1" fill-rule="nonzero"/><path fill="#f80000" d="M 68.871094 43.039062 L 70.289062 47.359375 L 70.34375 47.359375 L 71.761719 43.039062 L 73.476562 43.039062 L 71.335938 48.9375 L 69.296875 48.9375 L 67.15625 43.039062 L 68.871094 43.039062 " fill-opacity="1" fill-rule="nonzero"/><path fill="#f80000" d="M 75.589844 45.792969 L 76.347656 45.792969 C 76.691406 45.792969 76.953125 45.730469 77.132812 45.605469 C 77.3125 45.476562 77.402344 45.277344 77.402344 45.003906 C 77.402344 44.460938 77.050781 44.1875 76.347656 44.1875 L 75.589844 44.1875 Z M 74.058594 48.9375 L 74.058594 43.039062 L 76.675781 43.039062 C 77.152344 43.039062 77.5625 43.117188 77.90625 43.277344 C 78.253906 43.4375 78.519531 43.664062 78.707031 43.957031 C 78.894531 44.25 78.992188 44.597656 78.992188 45.003906 C 78.992188 45.410156 78.894531 45.757812 78.703125 46.042969 C 78.511719 46.328125 78.238281 46.546875 77.890625 46.691406 L 79.207031 48.9375 L 77.535156 48.9375 L 76.378906 46.917969 L 75.589844 46.917969 L 75.589844 48.9375 L 74.058594 48.9375 " fill-opacity="1" fill-rule="nonzero"/></svg>