<svg xmlns="http://www.w3.org/2000/svg" xmlns:xlink="http://www.w3.org/1999/xlink" width="192" zoomAndPan="magnify" viewBox="0 0 144 80.999996" height="108" preserveAspectRatio="xMidYMid meet" version="1.0"><defs><clipPath id="c0f8f70c51"><path d="M 32.511719 0 L 111.261719 0 L 111.261719 80 L 32.511719 80 Z M 32.511719 0 " clip-rule="nonzero"/></clipPath></defs><g clip-path="url(#c0f8f70c51)"><path fill="#278d46" d="M 111.261719 39.492188 C 111.261719 61.296875 93.632812 78.972656 71.894531 78.972656 C 68.710938 78.976562 65.574219 78.597656 62.480469 77.835938 C 59.390625 77.074219 56.4375 75.953125 53.617188 74.46875 C 53.601562 74.476562 53.585938 74.480469 53.570312 74.488281 L 41.703125 79.433594 C 37.992188 80.980469 34.246094 77.296875 35.71875 73.542969 L 39.996094 62.636719 C 37.5625 59.273438 35.707031 55.613281 34.429688 51.660156 C 33.152344 47.703125 32.519531 43.648438 32.527344 39.492188 C 32.527344 17.6875 50.152344 0.015625 71.894531 0.015625 C 93.632812 0.015625 111.261719 17.691406 111.261719 39.492188 Z M 111.261719 39.492188 " fill-opacity="1" fill-rule="nonzero"/></g><path fill="#ffffff" d="M 106.152344 39.492188 C 106.152344 40.617188 106.097656 41.742188 105.988281 42.859375 C 105.878906 43.980469 105.710938 45.089844 105.492188 46.195312 C 105.273438 47.300781 105.003906 48.390625 104.675781 49.464844 C 104.351562 50.542969 103.972656 51.601562 103.542969 52.640625 C 103.113281 53.679688 102.636719 54.695312 102.105469 55.6875 C 101.578125 56.679688 101 57.644531 100.378906 58.578125 C 99.753906 59.515625 99.085938 60.417969 98.375 61.289062 C 97.664062 62.15625 96.910156 62.992188 96.117188 63.785156 C 95.324219 64.582031 94.492188 65.335938 93.625 66.050781 C 92.757812 66.765625 91.859375 67.433594 90.925781 68.058594 C 89.992188 68.683594 89.03125 69.261719 88.042969 69.792969 C 87.054688 70.324219 86.039062 70.804688 85.003906 71.234375 C 83.964844 71.664062 82.910156 72.042969 81.835938 72.371094 C 80.765625 72.695312 79.675781 72.96875 78.578125 73.1875 C 77.476562 73.410156 76.367188 73.574219 75.25 73.683594 C 74.132812 73.792969 73.015625 73.847656 71.894531 73.847656 C 70.769531 73.847656 69.652344 73.792969 68.535156 73.683594 C 67.417969 73.574219 66.308594 73.410156 65.210938 73.1875 C 64.109375 72.96875 63.019531 72.695312 61.949219 72.371094 C 60.875 72.042969 59.820312 71.664062 58.78125 71.234375 C 57.746094 70.804688 56.734375 70.324219 55.742188 69.792969 C 54.753906 69.261719 53.792969 68.683594 52.859375 68.058594 C 51.925781 67.433594 51.027344 66.765625 50.160156 66.050781 C 49.292969 65.335938 48.460938 64.582031 47.667969 63.785156 C 46.875 62.992188 46.121094 62.15625 45.410156 61.289062 C 44.699219 60.417969 44.03125 59.515625 43.40625 58.578125 C 42.785156 57.644531 42.207031 56.679688 41.679688 55.6875 C 41.148438 54.695312 40.671875 53.679688 40.242188 52.640625 C 39.8125 51.601562 39.433594 50.542969 39.109375 49.464844 C 38.78125 48.390625 38.511719 47.300781 38.292969 46.195312 C 38.074219 45.089844 37.910156 43.980469 37.796875 42.859375 C 37.6875 41.742188 37.632812 40.617188 37.632812 39.492188 C 37.632812 38.367188 37.6875 37.246094 37.796875 36.125 C 37.910156 35.003906 38.074219 33.894531 38.292969 32.789062 C 38.511719 31.6875 38.78125 30.597656 39.109375 29.519531 C 39.433594 28.441406 39.8125 27.382812 40.242188 26.34375 C 40.671875 25.304688 41.148438 24.289062 41.679688 23.296875 C 42.207031 22.304688 42.785156 21.339844 43.40625 20.40625 C 44.03125 19.46875 44.699219 18.566406 45.410156 17.699219 C 46.121094 16.828125 46.875 15.996094 47.667969 15.199219 C 48.460938 14.402344 49.292969 13.648438 50.160156 12.933594 C 51.027344 12.222656 51.925781 11.550781 52.859375 10.925781 C 53.792969 10.300781 54.753906 9.722656 55.742188 9.191406 C 56.734375 8.664062 57.746094 8.183594 58.78125 7.75 C 59.820312 7.320312 60.875 6.941406 61.949219 6.617188 C 63.019531 6.289062 64.109375 6.015625 65.210938 5.796875 C 66.308594 5.578125 67.417969 5.414062 68.535156 5.300781 C 69.652344 5.191406 70.769531 5.136719 71.894531 5.136719 C 73.015625 5.136719 74.132812 5.191406 75.25 5.300781 C 76.367188 5.414062 77.476562 5.578125 78.578125 5.796875 C 79.675781 6.015625 80.765625 6.289062 81.835938 6.617188 C 82.910156 6.941406 83.964844 7.320312 85.003906 7.75 C 86.039062 8.183594 87.054688 8.664062 88.042969 9.191406 C 89.03125 9.722656 89.992188 10.300781 90.925781 10.925781 C 91.859375 11.550781 92.757812 12.222656 93.625 12.933594 C 94.492188 13.648438 95.324219 14.402344 96.117188 15.199219 C 96.910156 15.996094 97.664062 16.828125 98.375 17.699219 C 99.085938 18.566406 99.753906 19.46875 100.378906 20.40625 C 101 21.339844 101.578125 22.304688 102.105469 23.296875 C 102.636719 24.289062 103.113281 25.304688 103.542969 26.34375 C 103.972656 27.382812 104.351562 28.441406 104.675781 29.519531 C 105.003906 30.597656 105.273438 31.6875 105.492188 32.789062 C 105.710938 33.894531 105.878906 35.003906 105.988281 36.125 C 106.097656 37.246094 106.152344 38.367188 106.152344 39.492188 Z M 106.152344 39.492188 " fill-opacity="1" fill-rule="nonzero"/><path fill="#278d46" d="M 101.355469 39.492188 C 101.355469 40.460938 101.304688 41.425781 101.210938 42.386719 C 101.117188 43.351562 100.976562 44.308594 100.789062 45.257812 C 100.597656 46.207031 100.363281 47.144531 100.085938 48.070312 C 99.804688 48.996094 99.480469 49.90625 99.109375 50.796875 C 98.742188 51.691406 98.328125 52.566406 97.875 53.417969 C 97.421875 54.273438 96.925781 55.101562 96.386719 55.90625 C 95.851562 56.710938 95.277344 57.488281 94.667969 58.234375 C 94.054688 58.984375 93.40625 59.699219 92.726562 60.382812 C 92.042969 61.066406 91.328125 61.71875 90.582031 62.332031 C 89.835938 62.945312 89.0625 63.519531 88.261719 64.058594 C 87.457031 64.59375 86.632812 65.09375 85.78125 65.546875 C 84.929688 66.003906 84.058594 66.417969 83.167969 66.789062 C 82.277344 67.160156 81.367188 67.484375 80.445312 67.765625 C 79.519531 68.046875 78.585938 68.28125 77.640625 68.46875 C 76.695312 68.65625 75.742188 68.800781 74.78125 68.894531 C 73.820312 68.988281 72.859375 69.035156 71.894531 69.035156 C 70.929688 69.035156 69.964844 68.988281 69.003906 68.894531 C 68.042969 68.800781 67.089844 68.65625 66.144531 68.46875 C 65.199219 68.28125 64.265625 68.046875 63.339844 67.765625 C 62.417969 67.484375 61.511719 67.160156 60.617188 66.789062 C 59.726562 66.417969 58.855469 66.003906 58.003906 65.546875 C 57.152344 65.09375 56.328125 64.59375 55.523438 64.058594 C 54.722656 63.519531 53.949219 62.945312 53.203125 62.332031 C 52.457031 61.71875 51.742188 61.066406 51.0625 60.382812 C 50.378906 59.699219 49.730469 58.984375 49.117188 58.234375 C 48.507812 57.488281 47.933594 56.710938 47.398438 55.90625 C 46.859375 55.101562 46.367188 54.273438 45.910156 53.417969 C 45.457031 52.566406 45.042969 51.691406 44.675781 50.796875 C 44.304688 49.90625 43.980469 48.996094 43.699219 48.070312 C 43.421875 47.144531 43.1875 46.207031 42.996094 45.257812 C 42.808594 44.308594 42.667969 43.351562 42.574219 42.386719 C 42.480469 41.425781 42.433594 40.460938 42.433594 39.492188 C 42.433594 38.523438 42.480469 37.558594 42.574219 36.597656 C 42.667969 35.632812 42.808594 34.679688 42.996094 33.730469 C 43.1875 32.78125 43.421875 31.84375 43.699219 30.917969 C 43.980469 29.992188 44.304688 29.082031 44.675781 28.1875 C 45.042969 27.292969 45.457031 26.417969 45.910156 25.566406 C 46.367188 24.710938 46.859375 23.882812 47.398438 23.078125 C 47.933594 22.273438 48.507812 21.496094 49.117188 20.75 C 49.730469 20.003906 50.378906 19.285156 51.0625 18.601562 C 51.742188 17.917969 52.457031 17.269531 53.203125 16.65625 C 53.949219 16.039062 54.722656 15.464844 55.523438 14.925781 C 56.328125 14.390625 57.152344 13.894531 58.003906 13.4375 C 58.855469 12.980469 59.726562 12.566406 60.617188 12.199219 C 61.511719 11.828125 62.417969 11.5 63.339844 11.21875 C 64.265625 10.941406 65.199219 10.703125 66.144531 10.515625 C 67.089844 10.328125 68.042969 10.1875 69.003906 10.089844 C 69.964844 9.996094 70.929688 9.949219 71.894531 9.949219 C 72.859375 9.949219 73.820312 9.996094 74.78125 10.089844 C 75.742188 10.1875 76.695312 10.328125 77.640625 10.515625 C 78.585938 10.703125 79.519531 10.941406 80.445312 11.21875 C 81.367188 11.5 82.277344 11.828125 83.167969 12.199219 C 84.058594 12.566406 84.929688 12.980469 85.78125 13.4375 C 86.632812 13.894531 87.457031 14.390625 88.261719 14.925781 C 89.0625 15.464844 89.835938 16.039062 90.582031 16.65625 C 91.328125 17.269531 92.042969 17.917969 92.726562 18.601562 C 93.40625 19.285156 94.054688 20.003906 94.667969 20.75 C 95.277344 21.496094 95.851562 22.273438 96.386719 23.078125 C 96.925781 23.882812 97.421875 24.710938 97.875 25.566406 C 98.328125 26.417969 98.742188 27.292969 99.109375 28.1875 C 99.480469 29.082031 99.804688 29.992188 100.085938 30.917969 C 100.363281 31.84375 100.597656 32.78125 100.789062 33.730469 C 100.976562 34.679688 101.117188 35.632812 101.210938 36.597656 C 101.304688 37.558594 101.355469 38.523438 101.355469 39.492188 Z M 101.355469 39.492188 " fill-opacity="1" fill-rule="nonzero"/><path fill="#ffffff" d="M 68.109375 29.839844 L 66.964844 24.988281 C 66.898438 24.710938 66.804688 24.441406 66.683594 24.183594 C 66.5625 23.929688 66.414062 23.6875 66.242188 23.460938 C 66.066406 23.234375 65.875 23.027344 65.65625 22.84375 C 65.441406 22.660156 65.207031 22.5 64.957031 22.363281 C 64.710938 22.226562 64.449219 22.117188 64.175781 22.039062 C 63.902344 21.957031 63.625 21.90625 63.34375 21.886719 C 63.058594 21.863281 62.777344 21.871094 62.496094 21.910156 C 62.214844 21.949219 61.9375 22.015625 61.671875 22.113281 L 59.027344 23.066406 C 58.597656 23.222656 58.203125 23.445312 57.847656 23.738281 C 57.492188 24.027344 57.195312 24.367188 56.957031 24.757812 C 56.71875 25.148438 56.550781 25.570312 56.453125 26.019531 C 56.355469 26.46875 56.335938 26.917969 56.390625 27.375 C 57.3125 34.882812 61.554688 53.046875 81.0625 57.035156 C 81.449219 57.117188 81.839844 57.136719 82.230469 57.101562 C 82.625 57.066406 83.003906 56.976562 83.371094 56.828125 C 83.738281 56.679688 84.078125 56.480469 84.386719 56.234375 C 84.695312 55.988281 84.960938 55.703125 85.1875 55.375 L 86.703125 53.175781 C 86.855469 52.957031 86.980469 52.726562 87.085938 52.484375 C 87.191406 52.242188 87.273438 51.988281 87.328125 51.730469 C 87.386719 51.46875 87.414062 51.207031 87.421875 50.941406 C 87.425781 50.675781 87.402344 50.414062 87.355469 50.152344 C 87.308594 49.890625 87.234375 49.636719 87.136719 49.386719 C 87.042969 49.140625 86.921875 48.90625 86.777344 48.683594 C 86.632812 48.460938 86.46875 48.253906 86.285156 48.0625 C 86.101562 47.871094 85.902344 47.699219 85.683594 47.546875 L 85.65625 47.53125 L 82.320312 45.253906 C 81.960938 45.007812 81.570312 44.824219 81.148438 44.707031 C 80.730469 44.585938 80.300781 44.535156 79.863281 44.558594 C 79.429688 44.578125 79.007812 44.667969 78.597656 44.824219 C 78.191406 44.980469 77.820312 45.199219 77.484375 45.480469 C 77.148438 45.757812 76.777344 45.972656 76.375 46.132812 C 75.96875 46.289062 75.550781 46.378906 75.117188 46.402344 C 74.683594 46.421875 74.257812 46.375 73.839844 46.261719 C 73.421875 46.144531 73.03125 45.964844 72.671875 45.722656 C 70.640625 44.351562 67.894531 42.078125 66.113281 38.925781 C 65.910156 38.574219 65.765625 38.199219 65.679688 37.800781 C 65.589844 37.40625 65.5625 37.003906 65.59375 36.597656 C 65.625 36.191406 65.714844 35.800781 65.863281 35.421875 C 66.015625 35.042969 66.214844 34.695312 66.46875 34.378906 L 67.328125 33.308594 C 67.71875 32.824219 67.980469 32.273438 68.121094 31.667969 C 68.257812 31.058594 68.253906 30.449219 68.109375 29.839844 Z M 68.109375 29.839844 " fill-opacity="1" fill-rule="nonzero"/></svg>