<svg xmlns="http://www.w3.org/2000/svg" xmlns:xlink="http://www.w3.org/1999/xlink" width="192" zoomAndPan="magnify" viewBox="0 0 144 80.999996" height="108" preserveAspectRatio="xMidYMid meet" version="1.0"><defs><clipPath id="fff466717c"><path d="M 30.140625 0 L 114.140625 0 L 114.140625 81 L 30.140625 81 Z M 30.140625 0 " clip-rule="nonzero"/></clipPath></defs><path fill="#a4d4ff" d="M 52.449219 65.464844 L 53.003906 65.035156 C 54.222656 64.085938 55.976562 64.300781 56.925781 65.515625 L 62.691406 72.875 C 63.640625 74.085938 63.425781 75.835938 62.207031 76.785156 L 61.652344 77.214844 Z M 52.449219 65.464844 " fill-opacity="1" fill-rule="evenodd"/><path fill="#a4d4ff" d="M 35.882812 44.320312 L 36.441406 43.886719 C 37.65625 42.941406 39.414062 43.15625 40.363281 44.371094 L 46.128906 51.726562 C 47.078125 52.941406 46.859375 54.691406 45.644531 55.636719 L 45.085938 56.070312 Z M 35.882812 44.320312 " fill-opacity="1" fill-rule="evenodd"/><path fill="#a4d4ff" d="M 89.207031 43.71875 C 95.992188 43.71875 101.527344 38.203125 101.527344 31.445312 C 101.527344 24.683594 95.992188 19.167969 89.207031 19.167969 C 82.425781 19.167969 76.890625 24.683594 76.890625 31.445312 C 76.890625 38.203125 82.425781 43.71875 89.207031 43.71875 Z M 89.207031 43.71875 " fill-opacity="1" fill-rule="evenodd"/><path fill="#a4d4ff" d="M 66.726562 5.335938 C 66.726562 5.609375 66.699219 5.878906 66.644531 6.148438 C 66.59375 6.414062 66.511719 6.675781 66.40625 6.925781 C 66.304688 7.179688 66.175781 7.417969 66.023438 7.644531 C 65.871094 7.871094 65.699219 8.082031 65.503906 8.277344 C 65.308594 8.46875 65.097656 8.640625 64.871094 8.792969 C 64.644531 8.945312 64.402344 9.074219 64.152344 9.175781 C 63.898438 9.28125 63.636719 9.359375 63.367188 9.414062 C 63.097656 9.464844 62.828125 9.492188 62.554688 9.492188 C 62.28125 9.492188 62.007812 9.464844 61.742188 9.414062 C 61.472656 9.359375 61.210938 9.28125 60.957031 9.175781 C 60.703125 9.074219 60.464844 8.945312 60.238281 8.792969 C 60.007812 8.640625 59.796875 8.46875 59.605469 8.277344 C 59.410156 8.082031 59.238281 7.871094 59.085938 7.644531 C 58.933594 7.417969 58.804688 7.179688 58.699219 6.925781 C 58.59375 6.675781 58.515625 6.414062 58.464844 6.148438 C 58.410156 5.878906 58.382812 5.609375 58.382812 5.335938 C 58.382812 5.0625 58.410156 4.792969 58.464844 4.523438 C 58.515625 4.257812 58.59375 3.996094 58.699219 3.746094 C 58.804688 3.492188 58.933594 3.253906 59.085938 3.027344 C 59.238281 2.800781 59.410156 2.589844 59.605469 2.394531 C 59.796875 2.203125 60.007812 2.03125 60.238281 1.878906 C 60.464844 1.726562 60.703125 1.597656 60.957031 1.496094 C 61.210938 1.390625 61.472656 1.3125 61.742188 1.257812 C 62.007812 1.207031 62.28125 1.179688 62.554688 1.179688 C 62.828125 1.179688 63.097656 1.207031 63.367188 1.257812 C 63.636719 1.3125 63.898438 1.390625 64.152344 1.496094 C 64.402344 1.597656 64.644531 1.726562 64.871094 1.878906 C 65.097656 2.03125 65.308594 2.203125 65.503906 2.394531 C 65.699219 2.589844 65.871094 2.800781 66.023438 3.027344 C 66.175781 3.253906 66.304688 3.492188 66.40625 3.746094 C 66.511719 3.996094 66.59375 4.257812 66.644531 4.523438 C 66.699219 4.792969 66.726562 5.0625 66.726562 5.335938 Z M 66.726562 5.335938 " fill-opacity="1" fill-rule="nonzero"/><path fill="#a4d4ff" d="M 85.554688 72.921875 C 85.554688 73.195312 85.527344 73.464844 85.472656 73.734375 C 85.417969 74 85.339844 74.261719 85.234375 74.511719 C 85.132812 74.765625 85.003906 75.003906 84.851562 75.230469 C 84.699219 75.457031 84.527344 75.667969 84.332031 75.863281 C 84.136719 76.054688 83.925781 76.226562 83.699219 76.378906 C 83.472656 76.53125 83.230469 76.660156 82.976562 76.761719 C 82.726562 76.867188 82.464844 76.945312 82.195312 77 C 81.925781 77.054688 81.65625 77.078125 81.382812 77.078125 C 81.109375 77.078125 80.835938 77.054688 80.566406 77 C 80.300781 76.945312 80.039062 76.867188 79.785156 76.761719 C 79.53125 76.660156 79.292969 76.53125 79.066406 76.378906 C 78.835938 76.226562 78.625 76.054688 78.433594 75.863281 C 78.238281 75.667969 78.066406 75.457031 77.914062 75.230469 C 77.761719 75.003906 77.632812 74.765625 77.527344 74.511719 C 77.421875 74.261719 77.34375 74 77.289062 73.734375 C 77.238281 73.464844 77.210938 73.195312 77.210938 72.921875 C 77.210938 72.648438 77.238281 72.378906 77.289062 72.109375 C 77.34375 71.84375 77.421875 71.582031 77.527344 71.332031 C 77.632812 71.078125 77.761719 70.839844 77.914062 70.613281 C 78.066406 70.386719 78.238281 70.175781 78.433594 69.984375 C 78.625 69.789062 78.835938 69.617188 79.066406 69.464844 C 79.292969 69.3125 79.53125 69.1875 79.785156 69.082031 C 80.039062 68.976562 80.300781 68.898438 80.566406 68.84375 C 80.835938 68.792969 81.109375 68.765625 81.382812 68.765625 C 81.65625 68.765625 81.925781 68.792969 82.195312 68.84375 C 82.464844 68.898438 82.726562 68.976562 82.976562 69.082031 C 83.230469 69.1875 83.472656 69.3125 83.699219 69.464844 C 83.925781 69.617188 84.136719 69.789062 84.332031 69.984375 C 84.527344 70.175781 84.699219 70.386719 84.851562 70.613281 C 85.003906 70.839844 85.132812 71.078125 85.234375 71.332031 C 85.339844 71.582031 85.417969 71.84375 85.472656 72.109375 C 85.527344 72.378906 85.554688 72.648438 85.554688 72.921875 Z M 85.554688 72.921875 " fill-opacity="1" fill-rule="nonzero"/><g clip-path="url(#fff466717c)"><path fill="#1f4571" d="M 58.042969 8.210938 C 48.5 12.492188 41.292969 21.03125 38.859375 31.394531 C 38.710938 32.027344 38.074219 32.421875 37.4375 32.273438 C 36.800781 32.125 36.40625 31.492188 36.554688 30.855469 C 39.167969 19.710938 46.949219 10.539062 57.238281 5.984375 C 57.210938 5.773438 57.199219 5.554688 57.199219 5.335938 C 57.199219 2.390625 59.597656 0 62.554688 0 C 65.511719 0 67.910156 2.390625 67.910156 5.335938 C 67.910156 8.28125 65.511719 10.671875 62.554688 10.671875 C 60.660156 10.671875 58.996094 9.691406 58.042969 8.210938 Z M 62.554688 2.359375 C 60.90625 2.359375 59.566406 3.691406 59.566406 5.335938 C 59.566406 6.980469 60.90625 8.3125 62.554688 8.3125 C 64.203125 8.3125 65.542969 6.980469 65.542969 5.335938 C 65.542969 3.691406 64.203125 2.359375 62.554688 2.359375 Z M 86.699219 72.273438 C 86.722656 72.484375 86.738281 72.703125 86.738281 72.921875 C 86.738281 75.867188 84.339844 78.261719 81.382812 78.261719 C 78.425781 78.261719 76.027344 75.867188 76.027344 72.921875 C 76.027344 69.976562 78.425781 67.585938 81.382812 67.585938 C 83.277344 67.585938 84.941406 68.566406 85.894531 70.046875 C 95.433594 65.765625 102.644531 57.226562 105.074219 46.863281 C 105.222656 46.230469 105.863281 45.835938 106.496094 45.984375 C 107.132812 46.132812 107.53125 46.765625 107.382812 47.402344 C 104.765625 58.546875 96.988281 67.71875 86.699219 72.273438 Z M 81.382812 69.945312 C 79.734375 69.945312 78.394531 71.277344 78.394531 72.921875 C 78.394531 74.566406 79.734375 75.898438 81.382812 75.898438 C 83.03125 75.898438 84.371094 74.566406 84.371094 72.921875 C 84.371094 71.277344 83.03125 69.945312 81.382812 69.945312 Z M 72.054688 54.378906 C 72.703125 54.449219 73.175781 55.03125 73.105469 55.675781 C 73.035156 56.324219 72.449219 56.792969 71.800781 56.722656 C 68.882812 56.410156 66.050781 55.144531 63.8125 52.925781 C 61.574219 50.707031 60.289062 47.890625 59.957031 44.988281 C 59.882812 44.339844 60.347656 43.753906 61 43.679688 C 61.648438 43.605469 62.234375 44.074219 62.308594 44.71875 C 62.582031 47.109375 63.640625 49.425781 65.484375 51.25 C 67.324219 53.078125 69.65625 54.117188 72.054688 54.378906 Z M 71.511719 59.371094 C 72.164062 59.441406 72.632812 60.023438 72.5625 60.671875 C 72.492188 61.320312 71.90625 61.789062 71.257812 61.71875 C 67.242188 61.285156 63.34375 59.542969 60.257812 56.488281 C 57.175781 53.429688 55.40625 49.554688 54.949219 45.554688 C 54.875 44.910156 55.339844 44.324219 55.988281 44.25 C 56.640625 44.175781 57.226562 44.640625 57.300781 45.289062 C 57.699219 48.773438 59.242188 52.152344 61.929688 54.8125 C 64.617188 57.476562 68.015625 58.996094 71.511719 59.371094 Z M 64.964844 44.417969 C 64.890625 43.769531 65.355469 43.183594 66.007812 43.113281 C 66.65625 43.039062 67.242188 43.503906 67.316406 44.152344 C 67.464844 45.445312 68.039062 46.699219 69.039062 47.6875 C 70.035156 48.675781 71.296875 49.242188 72.597656 49.382812 C 73.246094 49.453125 73.71875 50.035156 73.648438 50.683594 C 73.578125 51.332031 72.992188 51.800781 72.34375 51.730469 C 70.527344 51.535156 68.761719 50.746094 67.367188 49.363281 C 65.972656 47.980469 65.171875 46.226562 64.964844 44.417969 Z M 74.5625 42.152344 C 75.476562 43.054688 75.480469 44.527344 74.570312 45.4375 C 73.664062 46.347656 72.1875 46.351562 71.273438 45.449219 C 70.359375 44.542969 70.355469 43.070312 71.265625 42.160156 C 72.171875 41.25 73.648438 41.246094 74.5625 42.152344 Z M 62.378906 78.148438 C 59.851562 80.113281 56.644531 81 53.464844 80.609375 C 50.28125 80.21875 47.382812 78.582031 45.410156 76.0625 C 45.410156 76.058594 45.40625 76.054688 45.402344 76.050781 C 41.347656 70.734375 37.296875 65.617188 33.070312 60.308594 C 33.070312 60.308594 33.066406 60.304688 33.066406 60.300781 C 31.09375 57.785156 30.203125 54.585938 30.597656 51.414062 C 30.988281 48.242188 32.628906 45.355469 35.15625 43.390625 L 35.710938 42.957031 C 37.445312 41.609375 39.945312 41.917969 41.296875 43.644531 L 47.0625 51 C 48.414062 52.726562 48.105469 55.21875 46.371094 56.566406 L 45.816406 57 C 45.761719 57.042969 45.761719 57.125 45.75 57.207031 C 45.71875 57.378906 45.726562 57.570312 45.753906 57.78125 C 45.890625 58.875 46.570312 60.292969 47.632812 61.652344 C 48.695312 63.007812 49.910156 64.011719 50.941406 64.410156 C 51.140625 64.484375 51.328125 64.539062 51.503906 64.550781 C 51.585938 64.558594 51.664062 64.578125 51.71875 64.535156 L 52.277344 64.101562 C 54.007812 62.753906 56.507812 63.0625 57.859375 64.789062 L 63.625 72.148438 C 64.976562 73.875 64.667969 76.367188 62.9375 77.714844 Z M 35.722656 46.035156 C 34.199219 47.554688 33.214844 49.546875 32.945312 51.703125 C 32.632812 54.253906 33.34375 56.820312 34.929688 58.847656 C 39.164062 64.160156 43.21875 69.289062 47.285156 74.621094 C 48.871094 76.640625 51.195312 77.953125 53.753906 78.265625 C 55.917969 78.53125 58.09375 78.0625 59.945312 76.957031 L 52.050781 66.878906 C 51.683594 66.9375 51.28125 66.925781 50.84375 66.835938 C 49.378906 66.53125 47.398438 65.1875 45.765625 63.105469 C 44.132812 61.019531 43.304688 58.777344 43.367188 57.289062 C 43.382812 56.84375 43.46875 56.453125 43.617188 56.109375 Z M 61.8125 75.503906 C 62.203125 74.941406 62.203125 74.167969 61.757812 73.601562 L 55.992188 66.242188 C 55.550781 65.671875 54.796875 65.484375 54.15625 65.726562 Z M 45.246094 54.355469 C 45.640625 53.792969 45.636719 53.023438 45.195312 52.453125 L 39.429688 45.097656 C 38.984375 44.527344 38.234375 44.339844 37.589844 44.582031 Z M 73.828125 29.152344 C 74.480469 29.152344 75.011719 29.683594 75.011719 30.332031 C 75.011719 30.984375 74.480469 31.515625 73.828125 31.515625 C 68.585938 31.515625 64.339844 27.28125 64.339844 22.058594 C 64.339844 17.507812 67.5625 13.710938 71.855469 12.808594 C 72.636719 6.390625 78.125 1.414062 84.769531 1.414062 C 88.5625 1.414062 91.976562 3.03125 94.355469 5.613281 C 95.3125 5.324219 96.324219 5.167969 97.375 5.167969 C 103.058594 5.167969 107.675781 9.765625 107.675781 15.433594 C 107.675781 15.445312 107.675781 15.457031 107.675781 15.46875 C 111.335938 16.261719 114.078125 19.511719 114.078125 23.398438 C 114.078125 27.878906 110.433594 31.515625 105.933594 31.515625 L 104.464844 31.515625 C 103.808594 31.515625 103.28125 30.984375 103.28125 30.332031 C 103.28125 29.683594 103.808594 29.152344 104.464844 29.152344 L 105.933594 29.152344 C 109.125 29.152344 111.710938 26.578125 111.710938 23.398438 C 111.710938 20.359375 109.34375 17.867188 106.347656 17.65625 C 106.023438 17.636719 105.726562 17.484375 105.519531 17.234375 C 105.3125 16.988281 105.21875 16.664062 105.253906 16.34375 C 105.289062 16.046875 105.304688 15.742188 105.304688 15.433594 C 105.304688 11.070312 101.75 7.527344 97.375 7.527344 C 96.332031 7.527344 95.339844 7.726562 94.425781 8.089844 C 93.945312 8.285156 93.390625 8.140625 93.066406 7.734375 C 91.113281 5.320312 88.121094 3.773438 84.769531 3.773438 C 79.066406 3.773438 74.402344 8.257812 74.140625 13.882812 C 74.113281 14.464844 73.664062 14.941406 73.078125 15 C 69.5 15.371094 66.707031 18.390625 66.707031 22.058594 C 66.707031 25.976562 69.894531 29.152344 73.828125 29.152344 Z M 89.207031 44.898438 C 81.773438 44.898438 75.707031 38.855469 75.707031 31.445312 C 75.707031 24.03125 81.773438 17.988281 89.207031 17.988281 C 96.644531 17.988281 102.710938 24.03125 102.710938 31.445312 C 102.710938 38.855469 96.644531 44.898438 89.207031 44.898438 Z M 80.449219 24.609375 C 79.191406 26.203125 78.363281 28.148438 78.136719 30.261719 L 81.847656 30.261719 C 81.9375 28.492188 82.222656 26.828125 82.660156 25.339844 C 81.871094 25.132812 81.132812 24.886719 80.449219 24.609375 Z M 84.421875 21.429688 C 83.65625 21.796875 82.9375 22.246094 82.28125 22.769531 C 82.667969 22.894531 83.066406 23.011719 83.484375 23.117188 C 83.769531 22.5 84.082031 21.933594 84.421875 21.429688 Z M 96.136719 22.769531 C 95.480469 22.246094 94.761719 21.796875 93.996094 21.429688 C 94.335938 21.933594 94.648438 22.5 94.933594 23.117188 C 95.351562 23.011719 95.75 22.894531 96.136719 22.769531 Z M 100.277344 30.261719 C 100.054688 28.148438 99.226562 26.203125 97.96875 24.609375 C 97.285156 24.886719 96.546875 25.132812 95.761719 25.339844 C 96.195312 26.828125 96.484375 28.492188 96.570312 30.261719 Z M 97.875 38.394531 C 99.183594 36.78125 100.046875 34.792969 100.277344 32.625 L 96.570312 32.625 C 96.480469 34.453125 96.179688 36.171875 95.714844 37.691406 C 96.484375 37.894531 97.207031 38.132812 97.875 38.394531 Z M 93.996094 41.457031 C 94.707031 41.117188 95.375 40.707031 95.996094 40.230469 C 95.632812 40.113281 95.257812 40.007812 94.867188 39.910156 C 94.601562 40.472656 94.308594 40.992188 93.996094 41.457031 Z M 82.421875 40.230469 C 83.042969 40.707031 83.710938 41.117188 84.421875 41.457031 C 84.109375 40.992188 83.816406 40.472656 83.550781 39.910156 C 83.160156 40.007812 82.785156 40.113281 82.421875 40.230469 Z M 78.136719 32.625 C 78.371094 34.792969 79.234375 36.78125 80.542969 38.398438 C 81.210938 38.132812 81.933594 37.894531 82.703125 37.691406 C 82.242188 36.171875 81.941406 34.453125 81.847656 32.625 Z M 84.976562 25.828125 C 84.570312 27.152344 84.304688 28.660156 84.21875 30.261719 L 88.023438 30.261719 L 88.023438 26.128906 C 86.96875 26.085938 85.949219 25.980469 84.976562 25.828125 Z M 88.023438 21.097656 C 87.476562 21.410156 86.972656 21.921875 86.511719 22.566406 C 86.292969 22.875 86.085938 23.210938 85.890625 23.578125 C 86.578125 23.667969 87.292969 23.734375 88.023438 23.765625 Z M 92.527344 23.578125 C 92.332031 23.210938 92.125 22.875 91.90625 22.566406 C 91.445312 21.921875 90.941406 21.410156 90.394531 21.097656 L 90.394531 23.765625 C 91.125 23.734375 91.839844 23.667969 92.527344 23.578125 Z M 94.199219 30.261719 C 94.113281 28.660156 93.847656 27.152344 93.441406 25.828125 C 92.46875 25.980469 91.449219 26.085938 90.394531 26.128906 L 90.394531 30.261719 Z M 93.398438 37.210938 C 93.828125 35.847656 94.109375 34.289062 94.199219 32.625 L 90.394531 32.625 L 90.394531 36.914062 C 91.433594 36.960938 92.4375 37.058594 93.398438 37.210938 Z M 90.394531 41.789062 C 90.941406 41.476562 91.445312 40.964844 91.90625 40.320312 C 92.097656 40.054688 92.277344 39.765625 92.449219 39.457031 C 91.785156 39.371094 91.097656 39.308594 90.394531 39.277344 Z M 85.96875 39.457031 C 86.140625 39.765625 86.320312 40.054688 86.511719 40.320312 C 86.972656 40.964844 87.476562 41.476562 88.023438 41.789062 L 88.023438 39.277344 C 87.320312 39.308594 86.632812 39.371094 85.96875 39.457031 Z M 84.21875 32.625 C 84.308594 34.289062 84.589844 35.847656 85.023438 37.210938 C 85.980469 37.058594 86.984375 36.960938 88.023438 36.914062 L 88.023438 32.625 Z M 84.21875 32.625 " fill-opacity="1" fill-rule="evenodd"/></g></svg>