<svg xmlns="http://www.w3.org/2000/svg" xmlns:xlink="http://www.w3.org/1999/xlink" width="192" zoomAndPan="magnify" viewBox="0 0 144 80.999996" height="108" preserveAspectRatio="xMidYMid meet" version="1.0"><defs><clipPath id="ab9447cdf5"><path d="M 63 32 L 112.5 32 L 112.5 81 L 63 81 Z M 63 32 " clip-rule="nonzero"/></clipPath><clipPath id="62aabe23af"><path d="M 31.5 0 L 98 0 L 98 66 L 31.5 66 Z M 31.5 0 " clip-rule="nonzero"/></clipPath></defs><g clip-path="url(#ab9447cdf5)"><path fill="#8ad7f8" d="M 67.359375 32.570312 L 108.871094 32.570312 C 110.898438 32.570312 112.414062 34.257812 112.414062 36.113281 L 112.414062 66.65625 C 112.414062 68.679688 110.726562 70.199219 108.871094 70.199219 L 105.835938 70.199219 L 105.835938 81 L 85.246094 70.199219 L 67.359375 70.199219 C 65.335938 70.199219 63.816406 68.511719 63.816406 66.65625 L 63.816406 36.113281 C 63.816406 34.085938 65.503906 32.570312 67.359375 32.570312 Z M 67.359375 32.570312 " fill-opacity="1" fill-rule="nonzero"/></g><path fill="#55c0eb" d="M 67.359375 32.570312 C 65.335938 32.570312 63.816406 34.257812 63.816406 36.113281 L 63.816406 56.867188 L 69.214844 54 L 92.164062 54 C 96.722656 54 100.433594 50.289062 100.433594 45.730469 L 100.433594 32.398438 L 67.359375 32.398438 Z M 67.359375 32.570312 " fill-opacity="1" fill-rule="nonzero"/><g clip-path="url(#62aabe23af)"><path fill="#f3f3f3" d="M 92.164062 0 L 36.476562 0 C 33.777344 0 31.585938 2.195312 31.585938 4.894531 L 31.585938 45.898438 C 31.585938 48.429688 33.777344 50.625 36.476562 50.625 L 40.867188 50.625 L 40.867188 65.136719 L 68.371094 50.625 L 92.164062 50.625 C 94.867188 50.625 97.058594 48.429688 97.058594 45.730469 L 97.058594 4.894531 C 97.058594 2.195312 94.867188 0 92.164062 0 Z M 92.164062 0 " fill-opacity="1" fill-rule="nonzero"/></g><path fill="#f3705a" d="M 45.589844 20.925781 C 45.253906 21.09375 45.085938 21.429688 45.085938 21.9375 C 45.085938 22.445312 45.253906 22.78125 45.757812 22.949219 C 46.097656 23.289062 47.109375 23.457031 48.460938 23.792969 C 49.976562 24.132812 50.992188 24.636719 51.835938 25.3125 C 52.679688 25.988281 53.015625 27 53.015625 28.351562 C 53.015625 29.699219 52.507812 30.882812 51.496094 31.726562 C 50.484375 32.570312 49.132812 33.074219 47.445312 33.074219 C 45.085938 33.074219 42.890625 32.230469 40.867188 30.375 L 42.890625 27.84375 C 44.578125 29.363281 46.097656 30.039062 47.445312 30.039062 C 48.121094 30.039062 48.628906 29.867188 48.964844 29.699219 C 49.304688 29.363281 49.472656 29.023438 49.472656 28.6875 C 49.472656 28.351562 49.304688 27.84375 48.964844 27.675781 C 48.628906 27.335938 47.785156 27.167969 46.773438 26.832031 C 44.914062 26.324219 43.734375 25.820312 42.890625 25.144531 C 42.046875 24.46875 41.710938 23.457031 41.710938 21.9375 C 41.710938 20.417969 42.214844 19.40625 43.226562 18.5625 C 44.242188 17.71875 45.589844 17.382812 47.109375 17.382812 C 48.121094 17.382812 49.132812 17.550781 50.148438 17.886719 C 51.160156 18.226562 52.003906 18.730469 52.847656 19.40625 L 51.160156 21.9375 C 49.808594 20.925781 48.460938 20.417969 47.109375 20.417969 C 46.433594 20.417969 45.929688 20.585938 45.589844 20.925781 Z M 45.589844 20.925781 " fill-opacity="1" fill-rule="nonzero"/><path fill="#f3705a" d="M 69.554688 23.457031 L 65.503906 31.726562 L 63.476562 31.726562 L 59.429688 23.457031 L 59.429688 33.074219 L 56.054688 33.074219 L 56.054688 17.886719 L 60.609375 17.886719 L 64.492188 26.324219 L 68.371094 17.886719 L 72.929688 17.886719 L 72.929688 33.074219 L 69.554688 33.074219 Z M 69.554688 23.457031 " fill-opacity="1" fill-rule="nonzero"/><path fill="#f3705a" d="M 80.351562 20.925781 C 80.015625 21.261719 79.847656 21.601562 79.847656 21.9375 C 79.847656 22.273438 80.015625 22.78125 80.523438 22.949219 C 80.859375 23.289062 81.871094 23.457031 83.222656 23.792969 C 84.742188 24.132812 85.753906 24.636719 86.597656 25.3125 C 87.441406 25.988281 87.777344 27 87.777344 28.351562 C 87.777344 29.699219 87.273438 30.882812 86.257812 31.726562 C 85.246094 32.570312 83.898438 33.074219 82.210938 33.074219 C 79.847656 33.074219 77.652344 32.230469 75.628906 30.375 L 77.652344 27.84375 C 79.339844 29.363281 80.859375 30.039062 82.210938 30.039062 C 82.882812 30.039062 83.390625 29.867188 83.726562 29.699219 C 84.066406 29.363281 84.234375 29.023438 84.234375 28.6875 C 84.234375 28.351562 84.066406 27.84375 83.726562 27.675781 C 83.390625 27.335938 82.546875 27.167969 81.535156 26.832031 C 79.679688 26.324219 78.496094 25.820312 77.652344 25.144531 C 76.808594 24.46875 76.472656 23.457031 76.472656 21.9375 C 76.472656 20.417969 76.976562 19.40625 77.992188 18.5625 C 79.003906 17.71875 80.351562 17.382812 81.871094 17.382812 C 82.882812 17.382812 83.898438 17.550781 84.910156 17.886719 C 85.921875 18.226562 86.765625 18.730469 87.609375 19.40625 L 85.921875 21.9375 C 84.570312 20.925781 83.222656 20.417969 81.871094 20.417969 C 81.027344 20.417969 80.691406 20.585938 80.351562 20.925781 Z M 80.351562 20.925781 " fill-opacity="1" fill-rule="nonzero"/></svg>